<svg width="56" viewBox="0 0 56 48" fill="none" xmlns="http://www.w3.org/2000/svg" class="w-[2.3125rem] md:w-14"><path fill-rule="evenodd" clip-rule="evenodd" d="M26.0842 7.39436C26.0842 5.8188 27.4739 4.32841 29.4584 4.32841C31.4429 4.32841 32.8326 5.8188 32.8326 7.39436C32.8326 8.96992 31.4429 10.4603 29.4584 10.4603C27.4739 10.4603 26.0842 8.96992 26.0842 7.39436ZM29.4584 0C25.3306 0 21.7653 3.19284 21.7653 7.39436C21.7653 9.22542 22.4424 10.8649 23.5482 12.132C23.6913 12.2961 23.676 12.5479 23.5127 12.692C21.787 14.2148 20.6855 16.4025 20.6855 18.8917C20.6855 23.6607 24.7287 27.3231 29.4584 27.3231C34.1881 27.3231 38.2313 23.6607 38.2313 18.8917C38.2313 16.4025 37.1298 14.2148 35.4041 12.692C35.2408 12.5479 35.2255 12.2961 35.3686 12.132C36.4744 10.8649 37.1515 9.22542 37.1515 7.39436C37.1515 3.19284 33.5862 0 29.4584 0ZM25.0045 18.8917C25.0045 16.7382 26.8831 14.7887 29.4584 14.7887C32.0337 14.7887 33.9123 16.7382 33.9123 18.8917C33.9123 21.0452 32.0337 22.9947 29.4584 22.9947C26.8831 22.9947 25.0045 21.0452 25.0045 18.8917ZM4.56673 1.45787C4.344 1.41677 4.06786 1.53753 3.51557 1.77906L1.44702 2.68367C1.19076 2.79574 1.06262 2.85178 0.968623 2.94107C0.885539 3.01999 0.821965 3.11716 0.782931 3.22488C0.738769 3.34675 0.738769 3.48655 0.738769 3.76615L0.738769 17.7191L0.738769 17.723L0.738769 17.7269L0.73877 25.8857C0.73877 26.4882 0.73877 26.7895 0.865713 26.977C0.976661 27.1409 1.14876 27.2534 1.34342 27.2893C1.56615 27.3304 1.84229 27.2097 2.39458 26.9681L3.65655 26.4163L3.65658 26.4162C4.16712 26.193 4.4224 26.0813 4.64828 26.0436C4.88922 26.0033 5.01216 26.0032 5.25319 26.0429C5.47917 26.0801 5.82517 26.2305 6.51717 26.5312C7.68936 27.0406 8.98306 27.323 10.3428 27.323C15.6469 27.323 19.9468 23.0249 19.9468 17.723C19.9468 12.4211 15.6469 8.123 10.3428 8.123C8.43874 8.123 6.66414 8.67684 5.17138 9.63214V2.86153C5.17138 2.25896 5.17138 1.95767 5.04444 1.77017C4.93349 1.6063 4.76139 1.49379 4.56673 1.45787ZM5.17138 17.7203L5.17138 17.723L5.17138 17.7257C5.17285 20.5794 7.48759 22.8922 10.3428 22.8922C13.1988 22.8922 15.5141 20.5779 15.5141 17.723C15.5141 14.8681 13.1988 12.5538 10.3428 12.5538C7.48759 12.5538 5.17285 14.8666 5.17138 17.7203ZM4.43261 38.4C4.43261 35.5451 6.74792 33.2308 9.60399 33.2308C12.4601 33.2308 14.7754 35.5451 14.7754 38.4C14.7754 41.2549 12.4601 43.5692 9.60399 43.5692C6.74792 43.5692 4.43261 41.2549 4.43261 38.4ZM9.60399 28.8C4.29985 28.8 0 33.0981 0 38.4C0 43.7019 4.29985 48 9.60399 48C14.9081 48 19.208 43.7019 19.208 38.4C19.208 33.0981 14.9081 28.8 9.60399 28.8ZM27.9877 33.2308C26.1512 33.2308 24.3794 34.8151 24.3794 37.7348V46.08C24.3794 46.4936 24.3794 46.7004 24.2988 46.8583C24.228 46.9973 24.115 47.1103 23.976 47.1811C23.818 47.2615 23.6111 47.2615 23.1973 47.2615H21.1288C20.715 47.2615 20.5082 47.2615 20.3501 47.1811C20.2111 47.1103 20.0981 46.9973 20.0273 46.8583C19.9468 46.7004 19.9468 46.4936 19.9468 46.08V37.7348C19.9468 33.0094 23.1074 28.8 27.9877 28.8C32.7858 28.8 36.053 32.8631 36.1066 37.6158L36.1073 37.6154V37.7348V46.08C36.1073 46.4936 36.1073 46.7004 36.0268 46.8583C35.956 46.9973 35.843 47.1103 35.7039 47.1811C35.5459 47.2615 35.339 47.2615 34.9253 47.2615H32.8567C32.443 47.2615 32.2361 47.2615 32.0781 47.1811C31.9391 47.1103 31.8261 46.9973 31.7552 46.8583C31.6747 46.7004 31.6747 46.4936 31.6747 46.08V40.7538V40.5692L31.6747 37.7275C31.6717 34.8309 29.8647 33.2308 27.9877 33.2308ZM46.3962 28.8C43.6088 28.8 41.2963 29.7085 39.5092 31.5477C37.7292 33.3797 36.8461 35.6775 36.8461 38.4C36.8461 41.1462 37.7413 43.4569 39.5462 45.2894L39.5488 45.2921L39.5515 45.2947C41.3856 47.1075 43.7527 48 46.6022 48C50.1351 48 52.8383 46.6252 54.6219 43.8595C54.7942 43.5923 54.7066 43.2352 54.4301 43.078L51.8893 41.6334C51.6297 41.4858 51.2998 41.5704 51.1434 41.8246C50.2311 43.3072 48.7794 44.0718 46.6709 44.0718C45.1479 44.0718 43.8977 43.6766 42.8871 42.9131C42.0674 42.2793 41.4886 41.4269 41.1609 40.3297H54.8429C55.1172 40.3297 55.3503 40.129 55.3909 39.8578C55.4634 39.3738 55.5 38.8992 55.5 38.4344C55.5 35.806 54.6532 33.5397 52.9552 31.6673C51.2646 29.7543 49.0619 28.8 46.3962 28.8ZM42.7773 33.9677C43.7146 33.1512 44.9067 32.7282 46.3962 32.7282C47.6452 32.7282 48.7214 33.1102 49.6492 33.8744C50.4202 34.5094 50.9629 35.4071 51.2517 36.6079H41.1414C41.4337 35.5158 41.9801 34.6448 42.772 33.9722L42.7746 33.97L42.7773 33.9677Z" fill="#181D29"></path></svg>